<?xml version="1.0" encoding="UTF-8"?><svg xmlns="http://www.w3.org/2000/svg" width="457" height="457" viewBox="0 0 457 457"><g id="Layer_1-2"><g><rect x="223.79" width="9.42" height="457"/><rect x="223.79" y="0" width="9.42" height="457" transform="translate(228.5 -94.65) rotate(45)"/><rect x="223.79" width="9.42" height="457" transform="translate(457) rotate(90)"/><rect x="223.79" y="0" width="9.42" height="457" transform="translate(551.65 228.5) rotate(135)"/><rect x="223.79" y="0" width="9.42" height="457" transform="translate(551.65 228.5) rotate(135)"/><rect x="223.79" y="0" width="9.42" height="457" transform="translate(104.45 -69.89) rotate(22.43)"/><rect x="223.79" y="0" width="9.42" height="457" transform="translate(351.78 -70.21) rotate(67.43)"/><rect x="223.79" y="0" width="9.42" height="457" transform="translate(526.89 104.45) rotate(112.43)"/><rect x="223.79" y="0" width="9.42" height="457" transform="translate(527.21 351.78) rotate(157.43)"/><rect x="223.79" y="0" width="9.42" height="457" transform="translate(527.21 351.78) rotate(157.43)"/></g></g></svg>