<?xml version="1.0" encoding="UTF-8"?><svg id="Layer_2" xmlns="http://www.w3.org/2000/svg" width="390.58" height="390.94" viewBox="0 0 390.58 390.94"><g id="Layer_1-2"><g><path d="M128.84,36.73c-.59-1.81-1.2-4.08-1.55-5.33l5.7-1.84c.34,1.24,.94,3.28,1.55,5.15,1.65,5.12,5.1,7.41,9.74,5.92,4.64-1.5,6.37-5.59,4.2-12.31l-6.58-20.35,6.39-2.07,6.44,19.93c3.34,10.34,.11,17.27-8.52,20.06-8.47,2.74-14.64-.68-17.38-9.15Z"/><path d="M162.99,25.88l-2.15-22.86,6.64-.62,2.14,22.75c.52,5.58,4.67,8.39,10.63,7.83,6.02-.57,9.51-4.1,8.99-9.67l-2.14-22.75,5.97-.56,2.15,22.86c.83,8.81-4.84,14.97-14.71,15.89-9.92,.93-16.69-4.06-17.52-12.87Z"/><path d="M205.74,.6l6.68,.74-3.44,31.06,18.15,2.01-.62,5.57-24.83-2.75L205.74,.6Z"/><path d="M239.06,5.56l6.47,1.6-8.86,35.76-6.47-1.6,8.86-35.76Z"/><path d="M247.94,31.01l9.02-21.11,6.13,2.62-8.98,21.01c-2.2,5.15,.1,9.6,5.61,11.96,5.56,2.38,10.32,.94,12.52-4.21l8.98-21.01,5.51,2.35-9.02,21.11c-3.48,8.14-11.39,10.84-20.51,6.95-9.17-3.92-12.73-11.53-9.26-19.67Z"/><path d="M283.02,48.29l4.89,3.56c-2.77,3.8-2.87,7.75,2.83,11.9,6.07,4.42,9.25,3.27,11.03,.83,1.19-1.63,1.2-3.07,.16-4.59-1.07-1.68-3.98-4.42-6.3-6.66-2.69-2.58-5.37-5.57-6.24-7.8-.99-2.45-.64-5.31,1.41-8.12,3.96-5.43,11.39-5.84,19.17-.17,8.83,6.43,9.21,12.66,4.26,19.45l-4.89-3.56c3.2-4.39,2.31-8.22-2.35-11.62-4.48-3.26-8.5-3.35-10.48-.64-1.22,1.68-1.36,3.1-.57,4.5,.85,1.59,3.81,4.57,6.12,6.81,2.76,2.77,5.3,5.38,6.43,7.73,1.28,2.52,.94,5.46-1.07,8.23-3.49,4.8-9.56,7.24-19.7-.15-9.87-7.19-8.66-14.27-4.71-19.7Z"/><path d="M341.4,65.99l15.55,19.83-4.41,3.46-11.41-14.54-8.29,6.5,9.05,11.55-3.44,2.7-9.06-11.55-8.46,6.64,11.72,14.94-4.41,3.46-15.86-20.23,29-22.74Z"/><path d="M362.68,95l3.12,5.95-27.66,14.53,8.49,16.16-4.96,2.6-11.61-22.11,32.62-17.13Z"/><path d="M377.21,125.38l2.29,6.26-34.6,12.67-2.29-6.26,34.6-12.67Z"/><path d="M383.73,142.93l1.25,6.6-20.08,3.8,.02,.11,23.71,15.35,1.55,8.2-19.6-12.93-16.42,20.77-1.67-8.8,12.97-15.79-7.88-5.52-8.8,1.67-1.25-6.6,36.21-6.85Z"/><path d="M372.6,184.27c11.69,.51,18.43,9.22,17.96,19.9-.47,10.74-7.94,18.82-19.64,18.31-11.92-.52-18.76-9.23-18.29-19.97,.47-10.68,8.05-18.76,19.97-18.23Zm-1.38,31.38c8.22,.36,13.44-4.9,13.74-11.73,.3-6.77-4.44-12.47-12.66-12.83-8.45-.37-13.78,4.89-14.08,11.66-.3,6.82,4.55,12.53,13,12.9Z"/><path d="M386.51,235l-6.35,23.81-5.41-1.44,4.62-17.31-10.82-2.89-3.9,14.61-4.54-1.21,3.9-14.61-14.83-3.96,1.73-6.49,35.6,9.5Z"/><path d="M376.56,268.21l-10.8,22.77-5.06-2.4,7.92-16.7-9.51-4.51-6.29,13.26-3.95-1.87,6.29-13.26-9.71-4.61-8.14,17.15-5.06-2.4,11.02-23.22,33.29,15.79Z"/><path d="M359.97,300.82l-9.74,12.93c-5.7,7.56-11.89,8.99-17.17,5.01-3.8-2.87-5.15-6.47-3.18-10.39l-.09-.07c-3.23,3.17-6.75,2.63-10.28-.04l-7.2-5.43,4.08-5.41,7.11,5.36c2.95,2.22,5.47,2.23,8.44-1.71l6.24-8.27-11.67-8.8,4.04-5.37,29.43,22.18Zm-24.03,2.3c-3.27,4.34-2.81,7.63,.32,9.99,2.95,2.22,6.29,1.52,9.53-2.78l5.66-7.51-9.75-7.35-5.76,7.65Z"/><path d="M264.34,353.22c.61,1.8,1.27,4.06,1.63,5.3l-5.67,1.93c-.36-1.24-1-3.27-1.63-5.12-1.73-5.09-5.22-7.33-9.83-5.76-4.61,1.57-6.28,5.69-4.01,12.37l6.9,20.25-6.36,2.17-6.76-19.83c-3.5-10.28-.38-17.26,8.21-20.19,8.43-2.87,14.65,.45,17.52,8.88Z"/><path d="M230.37,364.59l2.5,22.82-6.62,.73-2.49-22.71c-.61-5.57-4.8-8.32-10.76-7.67-6.01,.66-9.45,4.25-8.84,9.81l2.49,22.71-5.96,.65-2.5-22.82c-.96-8.79,4.6-15.04,14.46-16.12,9.91-1.09,16.75,3.8,17.72,12.59Z"/><path d="M188.03,390.55l-6.69-.63,2.95-31.11-18.18-1.72,.53-5.58,24.87,2.35-3.47,36.69Z"/><path d="M154.62,386.11l-6.49-1.5,8.28-35.9,6.49,1.5-8.28,35.9Z"/><path d="M145.35,360.8l-8.68,21.25-6.17-2.52,8.64-21.15c2.12-5.18-.25-9.6-5.8-11.87-5.6-2.29-10.33-.77-12.45,4.41l-8.64,21.15-5.55-2.27,8.68-21.25c3.35-8.19,11.22-11.02,20.39-7.27,9.23,3.77,12.91,11.33,9.57,19.51Z"/><path d="M110.03,344.1l-4.95-3.48c2.71-3.85,2.75-7.79-3.02-11.85-6.14-4.32-9.31-3.13-11.05-.65-1.16,1.65-1.15,3.09-.09,4.6,1.09,1.66,4.05,4.36,6.41,6.56,2.73,2.54,5.45,5.48,6.36,7.7,1.03,2.43,.72,5.3-1.28,8.14-3.87,5.49-11.29,6.02-19.17,.47-8.93-6.29-9.41-12.51-4.57-19.38l4.95,3.48c-3.13,4.44-2.18,8.26,2.53,11.58,4.53,3.19,8.56,3.22,10.49,.47,1.19-1.69,1.31-3.12,.5-4.51-.88-1.58-3.88-4.51-6.23-6.72-2.8-2.73-5.38-5.3-6.55-7.62-1.32-2.5-1.03-5.45,.94-8.24,3.42-4.85,9.45-7.39,19.71-.17,9.98,7.03,8.88,14.13,5.02,19.63Z"/><path d="M51.34,327.3l-15.86-19.58,4.35-3.53,11.63,14.36,8.18-6.63-9.23-11.4,3.39-2.75,9.23,11.4,8.36-6.77-11.95-14.75,4.35-3.52,16.18,19.97-28.63,23.19Z"/><path d="M29.62,298.66l-3.22-5.9,27.43-14.97-8.75-16.03,4.92-2.68,11.96,21.93-32.35,17.65Z"/><path d="M14.6,268.47l-2.39-6.22,34.4-13.21,2.39,6.22-34.4,13.21Z"/><path d="M7.81,251.04l-1.35-6.58,20.02-4.12-.02-.11-23.95-14.97-1.68-8.17,19.8,12.62,16.09-21.03,1.8,8.78-12.72,15.99,7.97,5.39,8.78-1.8,1.35,6.58-36.09,7.42Z"/><path d="M18.28,209.54C6.58,209.21-.29,200.61,0,189.92c.3-10.75,7.65-18.95,19.35-18.61,11.92,.34,18.91,8.94,18.6,19.69-.3,10.69-7.76,18.89-19.69,18.55Zm.89-31.41c-8.23-.23-13.37,5.11-13.56,11.94-.19,6.77,4.63,12.4,12.86,12.63,8.45,.24,13.7-5.1,13.9-11.88,.19-6.83-4.75-12.46-13.2-12.7Z"/><path d="M3.57,159.04l5.98-23.91,5.43,1.36-4.35,17.39,10.87,2.72,3.67-14.67,4.56,1.14-3.67,14.67,14.89,3.72-1.63,6.52L3.57,159.04Z"/><path d="M13.01,125.67l10.44-22.93,5.1,2.32-7.65,16.82,9.58,4.36,6.08-13.35,3.98,1.81-6.08,13.35,9.79,4.45,7.86-17.28,5.1,2.32-10.65,23.39-33.53-15.26Z"/><path d="M29.05,92.83l9.53-13.08c5.58-7.65,11.75-9.18,17.09-5.29,3.85,2.8,5.25,6.39,3.34,10.34l.09,.07c3.18-3.22,6.71-2.73,10.28-.13l7.29,5.31-3.99,5.48-7.2-5.25c-2.99-2.18-5.51-2.14-8.41,1.84l-6.1,8.37,11.81,8.61-3.96,5.43-29.78-21.71Zm23.99-2.68c3.2-4.39,2.68-7.68-.48-9.99-2.99-2.18-6.31-1.42-9.48,2.93l-5.54,7.6,9.87,7.19,5.64-7.74Z"/></g><g><rect x="297.47" y="319.5" width=".74" height="36"/><rect x="297.47" y="319.5" width=".74" height="36" transform="translate(325.89 -111.75) rotate(45)"/><rect x="297.47" y="319.5" width=".74" height="36" transform="translate(635.35 39.66) rotate(90)"/><rect x="297.47" y="319.5" width=".74" height="36" transform="translate(747.1 365.55) rotate(135)"/><rect x="297.47" y="319.5" width=".74" height="36" transform="translate(747.1 365.55) rotate(135)"/><rect x="297.47" y="319.5" width=".74" height="36" transform="translate(151.28 -88.1) rotate(22.43)"/><rect x="297.47" y="319.5" width=".74" height="36" transform="translate(495.16 -67.08) rotate(67.43)"/><rect x="297.47" y="319.5" width=".74" height="36" transform="translate(723.45 190.95) rotate(112.43)"/><rect x="297.47" y="319.5" width=".74" height="36" transform="translate(702.43 534.82) rotate(157.43)"/><rect x="297.47" y="319.5" width=".74" height="36" transform="translate(702.43 534.82) rotate(157.43)"/></g><g><rect x="94.47" y="32.5" width=".74" height="36"/><rect x="94.47" y="32.5" width=".74" height="36" transform="translate(63.49 -52.27) rotate(45)"/><rect x="94.47" y="32.5" width=".74" height="36" transform="translate(145.35 -44.34) rotate(90)"/><rect x="94.47" y="32.5" width=".74" height="36" transform="translate(197.62 19.15) rotate(135)"/><rect x="94.47" y="32.5" width=".74" height="36" transform="translate(197.62 19.15) rotate(135)"/><rect x="94.47" y="32.5" width=".74" height="36" transform="translate(26.44 -32.36) rotate(22.43)"/><rect x="94.47" y="32.5" width=".74" height="36" transform="translate(105.07 -56.46) rotate(67.43)"/><rect x="94.47" y="32.5" width=".74" height="36" transform="translate(177.71 -17.9) rotate(112.43)"/><rect x="94.47" y="32.5" width=".74" height="36" transform="translate(201.81 60.73) rotate(157.43)"/><rect x="94.47" y="32.5" width=".74" height="36" transform="translate(201.81 60.73) rotate(157.43)"/></g></g></svg>