<?xml version="1.0" encoding="UTF-8"?><svg id="Layer_1" xmlns="http://www.w3.org/2000/svg" width="400" height="500" viewBox="0 0 400 500"><defs><style>.cls-1{fill:none;stroke:#000;stroke-miterlimit:10;stroke-width:6px;}.cls-2{fill:#0039a6;}.cls-3{fill:#f1dbcb;}.cls-4{fill:#fff;}.cls-5{fill:#75211c;}.cls-6{fill:#7d4921;}.cls-7{fill:#d52b1e;}.cls-8{fill:#c6ab99;}.cls-9{fill:#dfb28b;}.cls-10{fill:#8c6239;opacity:.4;}</style></defs><rect class="cls-3" x="39.5" y="217" width="321" height="283" rx="53.38" ry="53.38"/><path class="cls-10" d="M360.74,371.3v75.36c0,29.48-26.22,53.38-49,53.38H89.74c-22.77,0-51-23.89-51-53.37v-75.37l45.39,83.65c4.71,8.69,14.63,9.13,19.65,.73,7.75-12.98,23.96-26.78,57.85-26.78,36.41,0,51.94,15.92,58.56,29.65,3.55,7.36,11.69,7.82,15.7,.87l124.85-88.11Z"/><circle cx="107.5" cy="340" r="23"/><circle cx="236.5" cy="340" r="23"/><circle class="cls-4" cx="248.5" cy="335" r="5"/><circle class="cls-4" cx="97.5" cy="330" r="5"/><path class="cls-9" d="M160.86,356.22c.66,5.06-.4,10-2.02,14.79-1.69,4.97-3.78,9.81-5.73,14.68-1.75,4.38-3.81,8.98-3.29,13.81,.45,4.15,2.45,8.14,5.71,10.79,3.77,3.06,8.67,4.21,13.43,3.31,1.89-.36,1.09-3.25-.8-2.89-7.98,1.51-15.56-4.83-15.42-12.97,.08-4.47,2.27-8.79,3.9-12.86,1.77-4.41,3.65-8.8,5.16-13.3,1.65-4.93,2.74-10.15,2.05-15.36-.11-.81-.61-1.49-1.5-1.5-.73,0-1.61,.7-1.5,1.5h0Z"/><path class="cls-1" d="M77.89,313.03s33.6-19.81,49.89-4.08"/><path class="cls-1" d="M268.78,313.03s-33.6-19.81-49.89-4.08"/><path class="cls-6" d="M113.05,464.3c5.83,1.9,10.17-3.55,15.29-5.13,5.51-1.7,10.66,3.27,15.27,5.5,2.65,1.28,5.42,2.05,8.38,1.68s5.6-1.55,8.24-2.76,5.27-2.54,8.13-2.92c3.36-.45,6.31,1.14,9.34,2.36,3.57,1.44,6.86,1.5,10.61,.79,3.53-.67,7.33-1.85,10.68,.07,1.68,.96,3.19-1.63,1.51-2.59-2.96-1.7-6.18-1.64-9.45-1.07s-6.54,1.65-9.83,.83-6.06-2.72-9.35-3.28c-3-.51-5.96,.17-8.75,1.28-5.28,2.09-10.59,5.81-16.46,3.68-5.33-1.93-9.61-6.54-15.5-6.92-3.3-.21-6.23,1.43-8.97,3.06-2.48,1.48-5.34,3.5-8.36,2.51-1.84-.6-2.63,2.3-.8,2.89h0Z"/><polygon class="cls-8" points="39.5 246 39.5 270.38 360.5 270.38 360.5 246.52 39.5 246"/><path class="cls-5" d="M187,55h26c94.1,0,170.5,76.4,170.5,170.5v26.34c0,7.81-6.34,14.16-14.16,14.16H30.66c-7.81,0-14.16-6.34-14.16-14.16v-26.34c0-94.1,76.4-170.5,170.5-170.5Z"/><g><rect class="cls-4" x="162.72" y="148" width="75.56" height="15"/><rect class="cls-2" x="162.72" y="163" width="75.56" height="15"/><rect class="cls-7" x="162.72" y="178" width="75.56" height="15"/></g><path class="cls-7" d="M39.63,245.06c-5.23-1.13-12.79-40.02-.23-69.36,7.55-17.61,20.94-28.5,23.33-26.19,2.54,2.45-10.3,17-12.05,45.33-.65,10.55,.52,18.22-2.65,31.16-.9,3.68-4.87,19.83-8.4,19.06Z"/><path class="cls-7" d="M366.82,247.08c3.09-1.38,8.15-34.94,1.23-58.78-4.15-14.31-11.84-22.44-13.28-20.3-1.53,2.28,5.77,13.56,6.36,37.42,.22,8.89-.6,15.48,1.06,26.18,.47,3.05,2.54,16.4,4.63,15.47Z"/></svg>