<?xml version="1.0" encoding="UTF-8"?><svg id="Layer_1" xmlns="http://www.w3.org/2000/svg" width="800" height="500" viewBox="0 0 800 500"><defs><style>.cls-1{fill:#161d1e;}.cls-2{fill:#0a0a0a;}.cls-3{fill:#545454;}.cls-4{fill:#466067;}.cls-5{fill:#2e4044;}.cls-6{fill:#4a3222;}.cls-7{fill:#4f7077;}.cls-8{fill:#282828;}</style></defs><polygon class="cls-4" points="127.89 244.09 186.14 239.46 282.95 253.67 142.69 263.22 127.89 244.09"/><polygon class="cls-8" points="282.36 313.1 323.01 297.3 337.67 370.47 286.18 420.33 128.97 399.56 104.44 323.91 282.36 313.1"/><polygon class="cls-8" points="565.86 310.61 606.51 294.81 621.17 367.97 569.68 417.83 412.48 397.07 387.94 321.41 565.86 310.61"/><ellipse class="cls-3" cx="137.28" cy="367.97" rx="10.39" ry="31.59"/><ellipse class="cls-3" cx="161.39" cy="370.47" rx="10.39" ry="31.59"/><ellipse class="cls-3" cx="187.16" cy="373.79" rx="10.39" ry="31.59"/><ellipse class="cls-3" cx="212.94" cy="377.12" rx="10.39" ry="31.59"/><ellipse class="cls-3" cx="266.98" cy="383.77" rx="12.89" ry="31.59"/><ellipse class="cls-3" cx="238.71" cy="379.61" rx="12.89" ry="31.59"/><path class="cls-1" d="M261.25,145.16h46.37c6.25,0,11.32,5.07,11.32,11.32v19.44h-69.01v-19.44c0-6.25,5.07-11.32,11.32-11.32Z"/><path class="cls-2" d="M596.49,300.51s22.58,39.69,12.6,57.98c-9.98,18.29-41.57,51.55-46.56,51.55s-144.66-17.46-144.66-17.46c0,0-29.93-59.18-24.94-100.26h-7.96s-8.67,48.71,24.59,105.25c19.12,4.16,151.31,21.62,151.31,21.62,0,0,54.87,4.16,64.02-3.33,9.15-7.48,64.85-35.41,56.53-109.4-41.57-20.78-84.93-5.94-84.93-5.94Z"/><path class="cls-2" d="M311.33,305.84s22.58,39.69,12.6,57.98c-9.98,18.29-41.57,51.55-46.56,51.55-4.37,0-111.9-13.37-138.67-16.71-3.79-.47-7.06-2.87-8.66-6.34-7.22-15.69-23.11-53.44-18.95-95.01l-11.29,.34s-7.85,44.12,20.05,97.11c2.72,5.17,7.66,8.8,13.42,9.76,35.36,5.86,142.42,20,142.42,20,0,0,54.87,4.16,64.02-3.33,9.15-7.48,68.17-35.75,59.86-109.74-41.57-20.78-88.26-5.6-88.26-5.6Z"/><polygon class="cls-1" points="613.25 332.22 571.68 377.95 366.33 382.11 398.58 330.56 613.25 332.22"/><polygon class="cls-4" points="396.08 266.13 396.08 336.73 613.25 332.22 609.93 268.2 396.08 266.13"/><polygon class="cls-4" points="107.77 333.05 279.86 352.18 302.31 338.87 294 279.84 107.77 276.89 107.77 333.05"/><polygon class="cls-5" points="86.15 244.09 127.89 244.09 155.16 255.73 228.32 254.07 294 279.84 107.77 276.89 107.77 301.51 86.15 301.51 82.83 285.66 86.15 244.09"/><polygon class="cls-5" points="228.32 254.07 568.36 251.58 604.94 264.88 681.43 269.04 683.92 274.86 598.08 272.8 561.71 269.87 597.45 280.68 550.76 280.68 403.74 280.68 399.51 272.8 302.31 272.8 294 279.84 228.32 254.07"/><path class="cls-6" d="M422.03,319.75c-9.15-10.81-19.95-2.49-28.27-1.66-8.31,.83-42.4-2.49-54.87-6.65-12.47-4.16-20.78-2.49-28.27,0-7.48,2.49-8.31,27.44-8.31,27.44l-3-21.33-5.31-37.7,8.31-7.04h97.2s10.03,18.55,17.78,35.77h0c1.74,3.87,3.37,7.67,4.74,11.18Z"/><path class="cls-6" d="M699.72,313.1c-4.16,5.82-14.13,17.46-14.13,17.46l-5.82-8.31s2.49-13.3-1.66-12.47c-4.16,.83-18.29,3.33-24.94,3.33s-18.29-4.16-24.11-.83c-5.82,3.33-19.12,9.98-24.94,6.65-.35-2.44-.41-6.51-.35-10.39,.07-5.36,.35-10.39,.35-10.39l-5.82,.83-.83-18.29-35.75-10.81,119.72-.83,17.25,28.98,3.53,5.94s1.66,3.33-2.49,9.15Z"/><polygon class="cls-5" points="147.67 184.09 147.67 235.83 183.89 235.83 186.75 239.94 252.43 238.27 250.77 198.37 190.07 178.41 147.67 184.09"/><polygon class="cls-5" points="248.54 227.44 277.1 239.94 186.75 239.94 224.16 217.49 248.54 227.44"/><polygon class="cls-4" points="250.77 198.37 252.43 229.95 270.61 239.94 396.08 239.94 407.07 229.13 407.07 175.52 402.91 175.92 392.93 195.87 250.77 198.37"/><polygon class="cls-7" points="190.07 178.41 250.77 198.37 392.93 195.87 402.91 175.92 381.04 175.52 326.42 171.76 190.07 178.41"/><polygon class="cls-1" points="186.75 239.94 282.95 253.67 493.18 252.13 561.71 232.17 407.07 229.13 396.08 239.94 277.1 239.94 186.75 239.94"/><polygon class="cls-7" points="561.71 202.38 491.04 193.38 489.79 199.89 561.71 202.38"/><polygon class="cls-4" points="480.54 230.58 480.54 223.99 488.54 224.14 489.79 199.89 561.71 202.38 561.71 232.17 480.54 230.58"/><polygon class="cls-1" points="407.07 229.13 414.55 190.89 491.04 193.38 488.54 224.14 480.54 223.99 480.54 230.58 407.07 229.13"/><polygon class="cls-4" points="414.55 190.89 407.07 164.27 477.73 165.11 491.04 193.38 414.55 190.89"/><polygon class="cls-1" points="407.07 164.27 407.07 229.13 414.55 190.89 407.07 164.27"/><polygon class="cls-5" points="374.23 175.52 374.23 160.72 387.94 149.98 404.4 145.5 410.81 164.32 412.69 178.41 374.23 175.52"/><polygon class="cls-7" points="404.4 145.5 410.81 164.32 477.73 165.11 471.92 146.82 404.4 145.5"/><path class="cls-2" d="M682.27,82.05l-166.29,69.76s-12.47-6.65-18.29-4.99c-5.82,1.66-25.77,13.3-25.77,13.3,0,0-5.16,6.65-4.16,9.98-5.47,2.49-14.13,6.65-14.13,6.65,0,0-7.48-4.16-13.3-.83-5.82,3.33-13.3,7.48-12.47,21.62,.83,14.13,13.3,19.12,16.63,19.12s5.82-.83,9.15-3.33,8.31-6.65,8.31-8.31c1.66-1.66,16.63-9.98,16.63-9.98,0,0,2.07,0,6.85-1.66s29.8-10.82,33.92-14.55c4.12-3.74,8.28-5.4,8.28-5.4l169.6-68.17s1.66-5.82,4.99-6.65c3.33-.83,14.97-2.49,14.97-12.47s-8.31-12.47-12.47-11.64-22.44,7.56-22.44,7.56Z"/><path class="cls-1" d="M147.67,195.87l-21.69,2.5s-.76,28.27,5.89,34.09c8.31,2.49,15.8,3.38,15.8,3.38v-39.96Z"/><path class="cls-1" d="M422.03,319.75c-9.15-10.81-19.95-2.49-28.27-1.66-8.31,.83-42.4-2.49-54.87-6.65-12.47-4.16-20.78-2.49-28.27,0-7.48,2.49-8.31,27.44-8.31,27.44l-3-21.33s2.8-15.99,7.47-16.04c4.67-.04,20.57-3.99,28.83-.36,8.26,3.64,23.54,7.07,34.19,7.43,10.65,.37,27.77-.02,34.59-2.74,6.64-2.64,12.58,2.48,12.88,2.74h0c1.74,3.87,3.37,7.67,4.74,11.18Z"/><path class="cls-1" d="M699.72,313.1c-4.16,5.82-14.13,17.46-14.13,17.46l-5.82-8.31s2.49-13.3-1.66-12.47c-4.16,.83-18.29,3.33-24.94,3.33s-18.29-4.16-24.11-.83c-5.82,3.33-19.12,9.98-24.94,6.65-.35-2.44-.41-6.51-.35-10.39,0,0,10.33-.42,19.47-4.57,9.15-4.16,22.08-3.39,25.17-2.53,3.09,.86,17.58,3.59,24.48,1.4,5.49-1.75,16.45-1.58,25.8-4.81l3.53,5.94s1.66,3.33-2.49,9.15Z"/></svg>