<?xml version="1.0" encoding="UTF-8"?><svg id="Layer_1" xmlns="http://www.w3.org/2000/svg" width="400" height="500" viewBox="0 0 400 500"><defs><style>.cls-1{fill:none;stroke:#000;stroke-miterlimit:10;stroke-width:6px;}.cls-2{fill:#0039a6;}.cls-3{fill:#054a6d;}.cls-4{fill:#f5e0cd;}.cls-5{fill:#fff;}.cls-6{fill:#ff3;}.cls-7{fill:#7d4921;}.cls-8{fill:#c6ab99;}.cls-9{fill:#dfb28b;}.cls-10{fill:#167ba3;}.cls-11{fill:#8c6239;opacity:.4;}</style></defs><path class="cls-4" d="M360.5,270.38v176.24c0,29.48-23.9,53.38-53.38,53.38H92.87c-29.48,0-53.37-23.9-53.37-53.38v-176.24c0-29.48,23.89-53.38,53.37-53.38h214.25c29.48,0,53.38,23.9,53.38,53.38Z"/><polygon class="cls-8" points="39.5 246 39.5 270.38 360.5 270.38 360.5 246.52 39.5 246"/><path class="cls-3" d="M187,55h26c94.1,0,170.5,76.4,170.5,170.5v26.34c0,7.81-6.34,14.16-14.16,14.16H30.66c-7.81,0-14.16-6.34-14.16-14.16v-26.34c0-94.1,76.4-170.5,170.5-170.5Z"/><circle cx="137.5" cy="330" r="23"/><circle cx="266.5" cy="330" r="23"/><circle class="cls-5" cx="255.5" cy="320" r="5"/><path class="cls-11" d="M360.5,371.26v75.36c0,29.48-23.9,53.38-53.38,53.38H92.87c-29.48,0-53.37-23.89-53.37-53.37v-75.37l58.75,83.65c6.1,8.69,18.94,9.13,25.43,.73,10.03-12.98,31.01-26.78,74.88-26.78,47.12,0,67.23,15.92,75.8,29.65,4.6,7.36,15.13,7.82,20.32,.87l65.82-88.11Z"/><circle class="cls-5" cx="143.5" cy="320" r="5"/><path class="cls-9" d="M190.86,346.22c.66,5.06-.4,10-2.02,14.79-1.69,4.97-3.78,9.81-5.73,14.68-1.75,4.38-3.81,8.98-3.29,13.81,.45,4.15,2.45,8.14,5.71,10.79,3.77,3.06,8.67,4.21,13.43,3.31,1.89-.36,1.09-3.25-.8-2.89-7.98,1.51-15.56-4.83-15.42-12.97,.08-4.47,2.27-8.79,3.9-12.86,1.77-4.41,3.65-8.8,5.16-13.3,1.65-4.93,2.74-10.15,2.05-15.36-.11-.81-.61-1.49-1.5-1.5-.73,0-1.61,.7-1.5,1.5h0Z"/><path class="cls-1" d="M107.89,298.03s33.6-19.81,49.89-4.08"/><path class="cls-1" d="M298.78,303.03s-33.6-19.81-49.89-4.08"/><path class="cls-7" d="M258.34,469.97c-7.8-1.87-14.17,4-21.51,5.3s-14.72-3.76-21.62-6.05c-3.76-1.25-7.58-1.68-11.52-1.13s-7.68,1.9-11.43,3.13-7.53,2.43-11.47,2.46c-4.43,.04-8.5-1.76-12.71-2.86-4.69-1.22-9.21-.9-13.95-.2s-9.53,1.62-13.92-.24c-.75-.32-1.6-.22-2.05,.54-.38,.63-.21,1.74,.54,2.05,8.11,3.44,16.35-.69,24.67,.02,4.43,.37,8.53,2.4,12.86,3.25,4.03,.79,8.05,.38,12-.65,7.53-1.96,15.05-6.06,23.04-4.34,7.53,1.62,14.03,6.58,21.83,7.18,4.39,.33,8.4-1.24,12.35-2.95s7.89-3.61,12.09-2.6c1.88,.45,2.68-2.44,.8-2.89h0Z"/><g><rect class="cls-2" x="162.5" y="148" width="76" height="22"/><rect class="cls-6" x="162.5" y="170" width="76" height="22"/></g><path class="cls-10" d="M321.15,116.43c6.7-2.13,40.61,37.25,45.33,78.88,2.83,25-5.39,46.14-9.61,45.08-4.49-1.14,.71-26.08-15.7-59.51-6.11-12.45-12.44-20.41-17.22-37.24-1.36-4.79-7.33-25.77-2.8-27.21Z"/><path class="cls-10" d="M31.05,254.72c-3.27-1.02-10.06-31.93-3.95-54.8,3.66-13.73,11.29-22,12.88-20.12,1.69,2-5.39,13.17-4.91,35.51,.18,8.32,1.32,14.4,.08,24.55-.35,2.89-1.9,15.54-4.11,14.86Z"/></svg>