<?xml version="1.0" encoding="UTF-8"?><svg id="Layer_1" xmlns="http://www.w3.org/2000/svg" width="115.76" height="115.62" viewBox="0 0 115.76 115.62"><defs><style>.cls-1{fill:#191919;}</style></defs><g><path class="cls-1" d="M42.06,10.07c.1,.29,.25,.56,.44,.82,.2,.25,.43,.46,.7,.61,.27,.16,.58,.26,.93,.31s.73,.02,1.14-.1c.37-.1,.69-.26,.97-.48,.28-.22,.5-.48,.65-.8,.16-.31,.25-.67,.28-1.06,.03-.4,0-.81-.13-1.26l-1.79-6.59,1.51-.41,1.8,6.64c.2,.75,.27,1.43,.21,2.02-.06,.6-.23,1.12-.51,1.57s-.64,.82-1.09,1.12c-.45,.29-.96,.52-1.53,.67-.48,.13-.98,.2-1.48,.2s-.97-.08-1.42-.25c-.44-.17-.85-.44-1.21-.79s-.64-.83-.83-1.42l1.34-.81h.02Z"/><path class="cls-1" d="M49.8,6.93l-.39-6.32,1.57-.1,.39,6.34c.03,.54,.14,1.03,.33,1.45,.19,.42,.43,.77,.75,1.06s.68,.5,1.11,.63,.9,.19,1.41,.15c1.03-.06,1.83-.42,2.39-1.07,.56-.65,.8-1.53,.74-2.63l-.39-6.34,1.56-.1,.39,6.32c.05,.85-.04,1.6-.26,2.24-.23,.64-.56,1.18-.98,1.61-.43,.44-.93,.78-1.51,1.01-.58,.24-1.19,.38-1.84,.42-.68,.04-1.33-.02-1.94-.18s-1.16-.43-1.63-.81-.86-.87-1.16-1.48-.48-1.35-.53-2.21h0Z"/><path class="cls-1" d="M60.36,11.3L61.86,.2l1.55,.21-1.22,9.04c-.02,.18-.09,.36-.19,.53-.1,.17-.23,.32-.37,.43v.02c.16-.11,.33-.19,.52-.25,.2-.05,.38-.07,.56-.04l5.61,.76-.2,1.46-7.77-1.05h.01Z"/><path class="cls-1" d="M71.29,1.76l1.52,.38-2.75,10.86-1.52-.38,2.75-10.86Z"/><path class="cls-1" d="M72.54,8.41l2.38-5.87,1.45,.59-2.38,5.89c-.2,.5-.31,.99-.33,1.45-.01,.46,.06,.89,.22,1.28s.4,.74,.73,1.05,.73,.56,1.21,.75c.96,.39,1.83,.41,2.61,.06,.78-.34,1.38-1.03,1.8-2.06l2.38-5.89,1.45,.59-2.38,5.87c-.32,.79-.72,1.43-1.2,1.9s-1.01,.82-1.58,1.03c-.58,.21-1.17,.3-1.8,.26s-1.24-.17-1.84-.42c-.63-.26-1.19-.59-1.68-1-.48-.41-.86-.89-1.12-1.43s-.4-1.16-.4-1.84,.15-1.42,.48-2.22h0Z"/><path class="cls-1" d="M83.3,14.82c-.32,.56-.35,1.14-.1,1.73s.74,1.15,1.49,1.67c.84,.57,1.59,.87,2.25,.89,.66,.02,1.18-.25,1.57-.81,.19-.27,.24-.55,.17-.83s-.22-.57-.45-.88c-.23-.3-.51-.61-.84-.92s-.68-.64-1.02-.97c-.35-.33-.68-.67-.99-1.02s-.56-.71-.74-1.07c-.18-.37-.27-.75-.27-1.14s.14-.79,.42-1.2c.32-.47,.69-.81,1.12-1.03,.43-.22,.89-.33,1.38-.33s1,.09,1.53,.29c.53,.19,1.04,.47,1.55,.82,.47,.33,.87,.69,1.21,1.08,.34,.38,.59,.79,.76,1.21s.25,.85,.23,1.29-.15,.88-.39,1.32l-1.36-.67c.27-.49,.31-.98,.13-1.48s-.65-1.01-1.42-1.53c-.76-.52-1.44-.78-2.04-.8-.6-.02-1.07,.22-1.41,.72-.17,.25-.21,.5-.12,.76s.25,.53,.49,.82c.24,.29,.53,.58,.87,.89,.34,.31,.68,.63,1.03,.96s.68,.67,.99,1.02,.55,.72,.72,1.1c.17,.38,.25,.78,.24,1.18-.01,.41-.17,.83-.47,1.27-.22,.32-.5,.61-.85,.89-.35,.27-.77,.46-1.27,.55s-1.06,.06-1.7-.09c-.64-.16-1.35-.5-2.14-1.04-.73-.5-1.28-.99-1.65-1.47s-.61-.95-.72-1.41-.11-.89-.02-1.3,.25-.79,.45-1.15l1.36,.7v-.02Z"/><path class="cls-1" d="M98.79,17.04l5.4,6.24-1.11,.96-4.05-4.68c-.1-.11-.17-.25-.22-.4-.05-.16-.07-.31-.06-.48h-.03c-.01,.16-.05,.31-.12,.46s-.16,.28-.28,.38l-2.36,2.04,4.24,4.9-.99,.86-3.89-4.5c-.1-.12-.18-.26-.24-.43-.05-.17-.07-.33-.06-.5h-.02c-.01,.16-.06,.33-.13,.48-.08,.16-.17,.29-.29,.39l-3.22,2.78-1.03-1.19,8.47-7.33v.02Z"/><path class="cls-1" d="M95.93,30.95l9.65-5.69,.8,1.35-7.85,4.64c-.16,.09-.33,.15-.54,.18s-.39,.02-.57-.03v.02c.17,.04,.34,.13,.5,.25s.29,.26,.38,.41l2.88,4.88-1.27,.75-3.98-6.75h0Z"/><path class="cls-1" d="M110.57,34.11l2.89,7.91-1.38,.5-2.35-6.43-3.41,1.25,2.27,6.22-1.23,.45-2.27-6.22-3.11,1.14,2.35,6.43-1.38,.5-2.89-7.91,10.52-3.84h0Z"/><path class="cls-1" d="M114.5,46.38l-8.51,5.01c-.08,.04-.17,.08-.27,.11s-.19,.05-.27,.06v.03c.09,0,.18-.02,.29,0s.2,0,.29,.04l9.51,2.67,.22,1.67-11.11,1.44-.2-1.55,6.81-.88c.32-.04,.67-.06,1.06-.07,.39,0,.75,0,1.08,.03v-.03c-.32-.02-.67-.07-1.05-.14-.39-.07-.74-.15-1.05-.24l-7.27-1.96-.2-1.55,6.53-3.75c.28-.17,.6-.33,.95-.5,.35-.16,.68-.3,.98-.4v-.03c-.31,.1-.66,.21-1.04,.3-.38,.1-.73,.17-1.05,.21l-6.81,.88-.2-1.55,11.11-1.44,.22,1.67-.02-.02Z"/><path class="cls-1" d="M115.56,60.7l-9.48,2.77c-.09,.02-.18,.04-.29,.04h-.28v.03c.08,.01,.17,.03,.27,.06s.19,.06,.27,.11l8.57,4.92-.2,1.67-11.12-1.32,.19-1.56,6.82,.81c.32,.04,.67,.1,1.05,.2,.38,.09,.73,.19,1.04,.29v-.03c-.3-.1-.62-.23-.98-.39-.36-.16-.68-.32-.96-.48l-6.57-3.68,.18-1.56,7.25-2.04c.31-.09,.66-.17,1.04-.25,.38-.07,.73-.12,1.05-.15v-.03c-.32,.03-.68,.04-1.07,.04s-.75-.02-1.07-.05l-6.82-.81,.18-1.56,11.12,1.32-.2,1.67v-.02Z"/><path class="cls-1" d="M113.63,72.41l-.42,1.51-10.8-2.98,.42-1.51,10.8,2.98Z"/><path class="cls-1" d="M102.48,71.6l10.29,4.42-.64,1.49-10.02,2.4c-.22,.06-.46,.09-.71,.11s-.49,.02-.71,0v.04c.22,.01,.45,.05,.7,.11s.48,.13,.67,.22l7.45,3.2-.62,1.44-10.29-4.42,.64-1.48,9.93-2.46c.21-.05,.44-.08,.7-.1,.26-.02,.5-.02,.72,0v-.02c-.23-.03-.47-.07-.71-.12s-.48-.13-.68-.21l-7.35-3.16,.62-1.44v-.02Z"/><path class="cls-1" d="M103.08,84.13c.78,.57,1.38,1.19,1.8,1.83,.42,.65,.67,1.31,.76,1.99,.09,.68,.03,1.35-.18,2.03s-.55,1.33-1.02,1.95c-.39,.52-.83,.96-1.29,1.33-.47,.37-.97,.64-1.51,.83-.54,.18-1.1,.26-1.69,.24-.59-.02-1.2-.17-1.83-.43l.49-1.43c.45,.17,.9,.25,1.35,.24,.46,0,.89-.08,1.3-.23,.41-.14,.79-.34,1.13-.59,.35-.25,.63-.53,.86-.84,.3-.4,.51-.85,.65-1.34,.13-.49,.17-.99,.09-1.49s-.26-1-.55-1.49c-.3-.49-.72-.94-1.28-1.35-.54-.4-1.08-.67-1.63-.83-.54-.15-1.06-.2-1.55-.15-.49,.06-.95,.21-1.37,.47-.42,.26-.79,.6-1.1,1.02-.26,.36-.41,.74-.42,1.15s.04,.79,.16,1.17c.13,.38,.3,.72,.53,1.04,.22,.32,.45,.57,.68,.77l.98-1.34,1.02,.75-2.04,2.79c-.23,.31-.47,.47-.73,.5-.26,.02-.53-.07-.8-.27l-3.8-2.79,.91-1.24,3.68,2.7,.2-.29c-.65-.5-1.15-1.01-1.5-1.52-.35-.51-.58-1.02-.68-1.52s-.08-.99,.05-1.47c.13-.48,.36-.94,.69-1.39,.46-.63,.97-1.13,1.54-1.5s1.17-.6,1.82-.69,1.33-.02,2.06,.2,1.48,.62,2.26,1.19h-.04Z"/><path class="cls-1" d="M73.92,105.48c-.1-.29-.25-.56-.45-.81s-.43-.45-.7-.61-.58-.26-.93-.31-.73-.01-1.14,.1c-.37,.1-.69,.26-.97,.48s-.49,.49-.65,.8-.25,.67-.28,1.07c-.03,.39,.02,.81,.14,1.26l1.82,6.58-1.51,.42-1.83-6.63c-.21-.75-.28-1.42-.22-2.02s.23-1.12,.5-1.57,.63-.83,1.08-1.12,.96-.52,1.52-.68c.48-.13,.98-.2,1.48-.21s.98,.08,1.42,.25c.45,.17,.85,.43,1.21,.79,.36,.35,.64,.82,.84,1.41l-1.33,.82v-.02Z"/><path class="cls-1" d="M66.2,108.65l.42,6.32-1.56,.1-.42-6.34c-.04-.54-.15-1.02-.33-1.44-.19-.42-.44-.77-.75-1.06-.31-.28-.68-.49-1.12-.62-.43-.13-.9-.18-1.41-.15-1.03,.07-1.83,.43-2.38,1.08-.56,.65-.8,1.53-.72,2.64l.42,6.34-1.56,.1-.42-6.32c-.06-.85,.03-1.6,.25-2.24,.23-.64,.55-1.18,.98-1.62s.93-.78,1.5-1.02c.58-.24,1.19-.38,1.84-.43,.68-.04,1.33,.01,1.94,.17s1.16,.42,1.63,.8,.86,.87,1.16,1.48,.48,1.35,.54,2.21h0Z"/><path class="cls-1" d="M55.62,104.33l-1.45,11.11-1.55-.2,1.18-9.04c.02-.18,.09-.36,.19-.53s.23-.32,.37-.43v-.02c-.16,.11-.33,.19-.52,.25-.2,.06-.38,.07-.56,.05l-5.62-.73,.19-1.46,7.77,1.01h0Z"/><path class="cls-1" d="M44.73,113.92l-1.52-.38,2.7-10.87,1.52,.38-2.7,10.87Z"/><path class="cls-1" d="M43.47,107.28l-2.35,5.89-1.46-.58,2.35-5.9c.2-.5,.31-.99,.32-1.45s-.06-.89-.22-1.28-.41-.74-.74-1.04-.74-.55-1.21-.74c-.96-.38-1.83-.4-2.62-.05-.78,.35-1.38,1.04-1.79,2.07l-2.35,5.9-1.46-.58,2.35-5.89c.32-.79,.71-1.43,1.19-1.91s1-.83,1.58-1.04c.57-.21,1.17-.3,1.8-.27s1.24,.17,1.84,.41c.63,.25,1.2,.58,1.68,.99s.86,.88,1.13,1.42,.4,1.15,.41,1.84c0,.68-.15,1.42-.46,2.23v-.02Z"/><path class="cls-1" d="M32.69,100.94c.31-.56,.34-1.14,.09-1.73s-.75-1.15-1.5-1.66c-.84-.57-1.59-.86-2.25-.88s-1.18,.25-1.56,.82c-.18,.27-.24,.55-.17,.83s.23,.57,.45,.87c.23,.3,.51,.61,.85,.92s.68,.63,1.03,.96,.68,.67,.99,1.02,.56,.7,.74,1.07,.28,.75,.27,1.14c0,.39-.14,.79-.41,1.2-.32,.47-.69,.81-1.11,1.04-.43,.22-.88,.33-1.38,.34s-1-.09-1.53-.28-1.05-.46-1.55-.81c-.47-.33-.88-.69-1.22-1.07s-.6-.79-.77-1.2c-.17-.42-.25-.85-.24-1.29s.14-.88,.39-1.32l1.36,.67c-.27,.49-.31,.98-.13,1.48s.66,1,1.43,1.52c.76,.51,1.44,.78,2.04,.79s1.07-.23,1.4-.72c.17-.25,.21-.5,.12-.76s-.25-.53-.49-.81-.53-.58-.87-.88c-.34-.31-.69-.62-1.04-.95-.35-.33-.68-.67-.99-1.02s-.55-.72-.73-1.1c-.17-.38-.26-.77-.25-1.18,0-.41,.16-.83,.46-1.27,.21-.32,.5-.62,.84-.89,.35-.28,.77-.46,1.26-.56,.5-.1,1.06-.07,1.7,.08s1.35,.5,2.15,1.03c.73,.49,1.29,.98,1.66,1.46,.37,.48,.61,.95,.72,1.4,.11,.46,.12,.89,.02,1.3s-.25,.79-.44,1.15l-1.37-.69,.03-.02Z"/><path class="cls-1" d="M17.18,98.8l-5.43-6.22,1.11-.97,4.07,4.66c.1,.11,.17,.25,.22,.4s.07,.31,.06,.48h.04c0-.16,.05-.31,.12-.47,.07-.15,.16-.28,.27-.38l2.35-2.05-4.26-4.88,.99-.86,3.92,4.48c.1,.12,.18,.26,.24,.43s.07,.33,.06,.5h.02c.01-.17,.05-.33,.13-.48,.07-.16,.17-.29,.29-.39l3.2-2.8,1.03,1.18s-8.43,7.37-8.43,7.37Z"/><path class="cls-1" d="M19.97,84.87l-9.62,5.74-.8-1.35,7.83-4.68c.16-.09,.33-.15,.54-.18,.2-.03,.39-.02,.57,.03v-.02c-.17-.04-.34-.13-.5-.25-.17-.12-.29-.26-.39-.41l-2.9-4.86,1.26-.75,4.02,6.73h-.01Z"/><path class="cls-1" d="M5.3,81.75l-2.92-7.89,1.38-.51,2.38,6.42,3.41-1.26-2.3-6.21,1.23-.46,2.3,6.21,3.11-1.15-2.38-6.42,1.38-.51,2.92,7.89-10.5,3.89h-.01Z"/><path class="cls-1" d="M1.32,69.53l8.49-5.05c.08-.04,.17-.08,.27-.11s.19-.05,.27-.06v-.03c-.09,.01-.18,.02-.29,.01-.1,0-.2-.01-.29-.03L.25,61.64l-.23-1.67,11.1-1.5,.21,1.55-6.8,.92c-.32,.04-.67,.07-1.06,.07s-.75,0-1.08-.02v.03c.32,.02,.67,.07,1.06,.13s.74,.14,1.05,.23l7.28,1.92,.21,1.55-6.51,3.79c-.28,.17-.59,.33-.95,.5-.35,.17-.68,.3-.98,.41v.03c.31-.11,.66-.21,1.04-.31s.73-.17,1.04-.21l6.8-.92,.21,1.55-11.1,1.5-.23-1.67h.01Z"/><path class="cls-1" d="M.19,55.21l9.47-2.82c.09-.02,.18-.04,.29-.04h.28v-.03c-.08,0-.17-.03-.27-.06-.1-.03-.19-.06-.27-.1L1.1,47.29l.19-1.67,11.13,1.26-.18,1.56-6.82-.77c-.32-.04-.67-.1-1.05-.19s-.73-.19-1.04-.29v.03c.3,.1,.63,.23,.98,.39,.36,.16,.68,.32,.96,.48l6.59,3.65-.18,1.56-7.24,2.08c-.31,.09-.66,.18-1.04,.25s-.73,.13-1.05,.15v.03c.32-.03,.68-.04,1.07-.05,.39,0,.75,0,1.07,.05l6.82,.77-.18,1.56-11.13-1.26,.19-1.67h0Z"/><path class="cls-1" d="M2.06,43.49l.41-1.51,10.81,2.93-.41,1.51s-10.81-2.93-10.81-2.93Z"/><path class="cls-1" d="M13.21,44.25l-10.32-4.36,.63-1.49,10-2.46c.22-.06,.46-.1,.71-.12s.49-.02,.71,0v-.04c-.22,0-.45-.04-.7-.11-.25-.06-.48-.13-.67-.22l-7.47-3.16,.61-1.44,10.32,4.36-.63,1.49-9.92,2.51c-.21,.05-.44,.09-.7,.1-.26,.02-.5,.02-.72,0v.02c.23,.02,.46,.06,.71,.12,.25,.05,.48,.12,.68,.21l7.37,3.12-.61,1.44v.03Z"/><path class="cls-1" d="M12.56,31.69c-.79-.57-1.39-1.18-1.81-1.83s-.68-1.31-.77-1.99c-.1-.68-.04-1.35,.17-2.03,.21-.68,.55-1.33,1.01-1.95,.39-.52,.82-.97,1.29-1.34s.97-.65,1.51-.83,1.1-.27,1.69-.24c.59,.02,1.2,.16,1.83,.42l-.48,1.43c-.45-.17-.9-.24-1.35-.23-.46,.01-.89,.09-1.3,.23-.41,.15-.79,.34-1.13,.59-.35,.25-.63,.53-.86,.84-.29,.41-.51,.85-.64,1.34-.13,.49-.16,.99-.08,1.49s.26,1,.56,1.49,.73,.94,1.29,1.34c.54,.4,1.09,.67,1.63,.82s1.06,.2,1.55,.14,.95-.22,1.37-.48,.78-.6,1.09-1.03c.26-.36,.4-.75,.42-1.15s-.04-.79-.17-1.17-.3-.72-.53-1.04c-.23-.32-.45-.57-.68-.76l-.98,1.35-1.02-.74,2.03-2.79c.23-.31,.47-.48,.73-.5s.53,.07,.8,.27l3.82,2.78-.9,1.24-3.69-2.68-.19,.29c.65,.5,1.16,1,1.51,1.51s.58,1.02,.69,1.52,.09,.99-.04,1.47c-.13,.48-.36,.94-.69,1.39-.46,.63-.97,1.13-1.53,1.51-.56,.38-1.17,.61-1.81,.7-.65,.09-1.33,.03-2.06-.19-.73-.22-1.48-.61-2.27-1.18h0Z"/></g><path class="cls-1" d="M20.85,20.18l-.7-.71c5.3-5.22,11.49-9.21,18.4-11.88l.36,.93c-6.78,2.61-12.85,6.53-18.06,11.65h0Z"/><path class="cls-1" d="M77.43,107.94l-.36-.93c6.75-2.64,12.8-6.57,17.98-11.7l.7,.71c-5.27,5.23-11.44,9.24-18.32,11.92Z"/></svg>